<svg width="110" height="112" viewBox="0 0 110 112" fill="none" xmlns="http://www.w3.org/2000/svg">
<path d="M47.3125 89.875C50.5938 83.2396 54.9688 78.8099 60.4375 76.5859C65.9062 74.362 70.5729 73.25 74.4375 73.25C76.1146 73.25 77.7552 73.3958 79.3594 73.6875C80.9635 73.9792 82.5312 74.3438 84.0625 74.7812C85.8125 72.0104 87.1979 69.0208 88.2188 65.8125C89.2396 62.6042 89.75 59.25 89.75 55.75C89.75 45.9792 86.3594 37.7031 79.5781 30.9219C72.7969 24.1406 64.5208 20.75 54.75 20.75C44.9792 20.75 36.7031 24.1406 29.9219 30.9219C23.1406 37.7031 19.75 45.9792 19.75 55.75C19.75 59.0312 20.1693 62.1667 21.0078 65.1562C21.8464 68.1458 23.1042 70.9167 24.7812 73.4688C27.7708 72.0104 30.8698 70.8802 34.0781 70.0781C37.2865 69.276 40.5312 68.875 43.8125 68.875C46.1458 68.875 48.388 69.0755 50.5391 69.4766C52.6901 69.8776 54.8229 70.4062 56.9375 71.0625C55.2604 71.9375 53.6745 72.9583 52.1797 74.125C50.6849 75.2917 49.2812 76.5312 47.9688 77.8438C47.0938 77.6979 46.3464 77.625 45.7266 77.625H43.8125C41.4792 77.625 39.1641 77.8802 36.8672 78.3906C34.5703 78.901 32.3646 79.6667 30.25 80.6875C32.5833 83.0208 35.1901 84.9714 38.0703 86.5391C40.9505 88.1068 44.0312 89.2188 47.3125 89.875ZM54.75 99.5C48.6979 99.5 43.0104 98.3516 37.6875 96.0547C32.3646 93.7578 27.7344 90.6406 23.7969 86.7031C19.8594 82.7656 16.7422 78.1354 14.4453 72.8125C12.1484 67.4896 11 61.8021 11 55.75C11 49.6979 12.1484 44.0104 14.4453 38.6875C16.7422 33.3646 19.8594 28.7344 23.7969 24.7969C27.7344 20.8594 32.3646 17.7422 37.6875 15.4453C43.0104 13.1484 48.6979 12 54.75 12C60.8021 12 66.4896 13.1484 71.8125 15.4453C77.1354 17.7422 81.7656 20.8594 85.7031 24.7969C89.6406 28.7344 92.7578 33.3646 95.0547 38.6875C97.3516 44.0104 98.5 49.6979 98.5 55.75C98.5 61.8021 97.3516 67.4896 95.0547 72.8125C92.7578 78.1354 89.6406 82.7656 85.7031 86.7031C81.7656 90.6406 77.1354 93.7578 71.8125 96.0547C66.4896 98.3516 60.8021 99.5 54.75 99.5ZM43.8125 62.3125C39.5833 62.3125 35.974 60.8177 32.9844 57.8281C29.9948 54.8385 28.5 51.2292 28.5 47C28.5 42.7708 29.9948 39.1615 32.9844 36.1719C35.974 33.1823 39.5833 31.6875 43.8125 31.6875C48.0417 31.6875 51.651 33.1823 54.6406 36.1719C57.6302 39.1615 59.125 42.7708 59.125 47C59.125 51.2292 57.6302 54.8385 54.6406 57.8281C51.651 60.8177 48.0417 62.3125 43.8125 62.3125ZM43.8125 53.5625C45.6354 53.5625 47.1849 52.9245 48.4609 51.6484C49.737 50.3724 50.375 48.8229 50.375 47C50.375 45.1771 49.737 43.6276 48.4609 42.3516C47.1849 41.0755 45.6354 40.4375 43.8125 40.4375C41.9896 40.4375 40.4401 41.0755 39.1641 42.3516C37.888 43.6276 37.25 45.1771 37.25 47C37.25 48.8229 37.888 50.3724 39.1641 51.6484C40.4401 52.9245 41.9896 53.5625 43.8125 53.5625ZM74.4375 66.6875C71.375 66.6875 68.7865 65.6302 66.6719 63.5156C64.5573 61.401 63.5 58.8125 63.5 55.75C63.5 52.6875 64.5573 50.099 66.6719 47.9844C68.7865 45.8698 71.375 44.8125 74.4375 44.8125C77.5 44.8125 80.0885 45.8698 82.2031 47.9844C84.3177 50.099 85.375 52.6875 85.375 55.75C85.375 58.8125 84.3177 61.401 82.2031 63.5156C80.0885 65.6302 77.5 66.6875 74.4375 66.6875Z" fill="#E3E3E3"/>
</svg>
