<svg width="110" height="112" viewBox="0 0 110 112" fill="none" xmlns="http://www.w3.org/2000/svg">
<path d="M18.3346 102.665C15.8138 102.665 13.6558 101.751 11.8607 99.9237C10.0655 98.0959 9.16797 95.8987 9.16797 93.332V41.9987C9.16797 39.432 10.0655 37.2348 11.8607 35.407C13.6558 33.5793 15.8138 32.6654 18.3346 32.6654H41.2513V18.6654C41.2513 16.0987 42.1489 13.9015 43.944 12.0737C45.7391 10.2459 47.8971 9.33203 50.418 9.33203H59.5846C62.1055 9.33203 64.2635 10.2459 66.0586 12.0737C67.8537 13.9015 68.7513 16.0987 68.7513 18.6654V32.6654H91.668C94.1888 32.6654 96.3468 33.5793 98.1419 35.407C99.9371 37.2348 100.835 39.432 100.835 41.9987V93.332C100.835 95.8987 99.9371 98.0959 98.1419 99.9237C96.3468 101.751 94.1888 102.665 91.668 102.665H18.3346ZM18.3346 93.332H91.668V41.9987H68.7513C68.7513 44.5654 67.8537 46.7626 66.0586 48.5904C64.2635 50.4181 62.1055 51.332 59.5846 51.332H50.418C47.8971 51.332 45.7391 50.4181 43.944 48.5904C42.1489 46.7626 41.2513 44.5654 41.2513 41.9987H18.3346V93.332ZM27.5013 83.9987H55.0013V81.8987C55.0013 80.5765 54.6385 79.3515 53.9128 78.2237C53.1871 77.0959 52.1749 76.2209 50.8763 75.5987C49.3485 74.8987 47.8016 74.3737 46.2357 74.0237C44.6697 73.6737 43.0082 73.4987 41.2513 73.4987C39.4944 73.4987 37.8329 73.6737 36.2669 74.0237C34.701 74.3737 33.1541 74.8987 31.6263 75.5987C30.3277 76.2209 29.3155 77.0959 28.5898 78.2237C27.8641 79.3515 27.5013 80.5765 27.5013 81.8987V83.9987ZM64.168 76.9987H82.5013V69.9987H64.168V76.9987ZM41.2513 69.9987C43.161 69.9987 44.7843 69.3181 46.1211 67.957C47.4579 66.5959 48.1263 64.9431 48.1263 62.9987C48.1263 61.0543 47.4579 59.4015 46.1211 58.0404C44.7843 56.6793 43.161 55.9987 41.2513 55.9987C39.3416 55.9987 37.7183 56.6793 36.3815 58.0404C35.0447 59.4015 34.3763 61.0543 34.3763 62.9987C34.3763 64.9431 35.0447 66.5959 36.3815 67.957C37.7183 69.3181 39.3416 69.9987 41.2513 69.9987ZM64.168 62.9987H82.5013V55.9987H64.168V62.9987ZM50.418 41.9987H59.5846V18.6654H50.418V41.9987Z" fill="#E3E3E3"/>
</svg>
