<svg width="88" height="88" viewBox="0 0 88 88" fill="none" xmlns="http://www.w3.org/2000/svg">
<path d="M8.75 87.5C6.34375 87.5 4.28385 86.6432 2.57031 84.9297C0.856771 83.2161 0 81.1562 0 78.75V30.625C0 28.2188 0.856771 26.1589 2.57031 24.4453C4.28385 22.7318 6.34375 21.875 8.75 21.875H30.625V8.75C30.625 6.34375 31.4818 4.28385 33.1953 2.57031C34.9089 0.856771 36.9688 0 39.375 0H48.125C50.5312 0 52.5911 0.856771 54.3047 2.57031C56.0182 4.28385 56.875 6.34375 56.875 8.75V21.875H78.75C81.1562 21.875 83.2161 22.7318 84.9297 24.4453C86.6432 26.1589 87.5 28.2188 87.5 30.625V78.75C87.5 81.1562 86.6432 83.2161 84.9297 84.9297C83.2161 86.6432 81.1562 87.5 78.75 87.5H8.75ZM8.75 78.75H78.75V30.625H56.875C56.875 33.0312 56.0182 35.0911 54.3047 36.8047C52.5911 38.5182 50.5312 39.375 48.125 39.375H39.375C36.9688 39.375 34.9089 38.5182 33.1953 36.8047C31.4818 35.0911 30.625 33.0312 30.625 30.625H8.75V78.75ZM17.5 70H43.75V68.0312C43.75 66.7917 43.4036 65.6432 42.7109 64.5859C42.0182 63.5286 41.0521 62.7083 39.8125 62.125C38.3542 61.4688 36.8776 60.9766 35.3828 60.6484C33.888 60.3203 32.3021 60.1562 30.625 60.1562C28.9479 60.1562 27.362 60.3203 25.8672 60.6484C24.3724 60.9766 22.8958 61.4688 21.4375 62.125C20.1979 62.7083 19.2318 63.5286 18.5391 64.5859C17.8464 65.6432 17.5 66.7917 17.5 68.0312V70ZM52.5 63.4375H70V56.875H52.5V63.4375ZM30.625 56.875C32.4479 56.875 33.9974 56.237 35.2734 54.9609C36.5495 53.6849 37.1875 52.1354 37.1875 50.3125C37.1875 48.4896 36.5495 46.9401 35.2734 45.6641C33.9974 44.388 32.4479 43.75 30.625 43.75C28.8021 43.75 27.2526 44.388 25.9766 45.6641C24.7005 46.9401 24.0625 48.4896 24.0625 50.3125C24.0625 52.1354 24.7005 53.6849 25.9766 54.9609C27.2526 56.237 28.8021 56.875 30.625 56.875ZM52.5 50.3125H70V43.75H52.5V50.3125ZM39.375 30.625H48.125V8.75H39.375V30.625Z" fill="#E3E3E3"/>
</svg>
